<?xml version="1.0" encoding="UTF-8" standalone="no"?>
<svg
   xmlns:dc="http://purl.org/dc/elements/1.1/"
   xmlns:cc="http://creativecommons.org/ns#"
   xmlns:rdf="http://www.w3.org/1999/02/22-rdf-syntax-ns#"
   xmlns:svg="http://www.w3.org/2000/svg"
   xmlns="http://www.w3.org/2000/svg"
   xmlns:sodipodi="http://sodipodi.sourceforge.net/DTD/sodipodi-0.dtd"
   xmlns:inkscape="http://www.inkscape.org/namespaces/inkscape"
   width="175px"
   height="175px"
   viewBox="0 0 175 175"
   version="1.1"
   id="svg88"
   sodipodi:docname="WindDial.svg"
   inkscape:version="1.0.1 (1.0.1+r73)">
  <path
     id="Stroke-1"
     style="fill:#0000ff;fill-rule:evenodd;stroke:#9dc2c2;stroke-width:1.4025;stroke-linecap:round;stroke-opacity:1"
     d="M 90.912109 1.8652344 L 90.392578 14.648438 L 90.912109 1.8652344 z M 84.013672 1.8808594 L 84.519531 14.664062 L 84.013672 1.8808594 z M 77.130859 2.4179688 L 78.666016 15.119141 L 77.130859 2.4179688 z M 97.78125 2.4355469 L 96.251953 15.136719 L 97.78125 2.4355469 z M 104.5918 3.5253906 L 102.05469 16.0625 L 104.5918 3.5253906 z M 70.314453 3.53125 L 72.875 16.064453 L 70.314453 3.53125 z M 111.29883 5.1640625 L 107.75781 17.457031 L 111.29883 5.1640625 z M 63.613281 5.1914062 L 67.181641 17.476562 L 63.613281 5.1914062 z M 117.84766 7.3496094 L 113.32422 19.316406 L 117.84766 7.3496094 z M 57.060547 7.3671875 L 61.611328 19.324219 L 57.060547 7.3671875 z M 124.20898 10.037109 L 118.73047 21.595703 L 124.20898 10.037109 z M 50.716797 10.09375 L 56.21875 21.644531 L 50.716797 10.09375 z M 130.31836 13.255859 L 123.91992 24.333984 L 130.31836 13.255859 z M 44.613281 13.3125 L 51.025391 24.382812 L 44.613281 13.3125 z M 136.15039 16.949219 L 128.87891 27.474609 L 136.15039 16.949219 z M 38.777344 16.994141 L 46.056641 27.515625 L 38.777344 16.994141 z M 141.67578 21.083984 L 133.58203 30.990234 L 141.67578 21.083984 z M 33.271484 21.152344 L 41.369141 31.056641 L 33.271484 21.152344 z M 146.83203 25.669922 L 137.96875 34.896484 L 146.83203 25.669922 z M 28.113281 25.732422 L 36.976562 34.957031 L 28.113281 25.732422 z M 151.60742 30.648438 L 142.03516 39.134766 L 151.60742 30.648438 z M 23.324219 30.697266 L 32.896484 39.183594 L 23.324219 30.697266 z M 155.98438 35.980469 L 145.76367 43.673828 L 155.98438 35.980469 z M 18.962891 36.046875 L 29.1875 43.736328 L 18.962891 36.046875 z M 159.9043 41.660156 L 149.09961 48.509766 L 159.9043 41.660156 z M 15.046875 41.730469 L 25.857422 48.570312 L 15.046875 41.730469 z M 163.35547 47.634766 L 152.03711 53.595703 L 163.35547 47.634766 z M 11.580078 47.701172 L 22.910156 53.644531 L 11.580078 47.701172 z M 166.33594 53.859375 L 154.57227 58.890625 L 166.33594 53.859375 z M 8.6308594 53.945312 L 20.404297 58.951172 L 8.6308594 53.945312 z M 168.78516 60.314453 L 156.6543 64.378906 L 168.78516 60.314453 z M 6.1933594 60.40625 L 18.333984 64.441406 L 6.1933594 60.40625 z M 170.70508 66.947266 L 158.2832 70.015625 L 170.70508 66.947266 z M 4.2617188 67.035156 L 16.6875 70.076172 L 4.2617188 67.035156 z M 172.10352 73.710938 L 159.47656 75.759766 L 172.10352 73.710938 z M 2.9160156 73.802734 L 15.546875 75.837891 L 2.9160156 73.802734 z M 172.91602 80.568359 L 160.16406 81.587891 L 172.91602 80.568359 z M 2.0820312 80.646484 L 14.833984 81.671875 L 2.0820312 80.646484 z M 160.39844 87.455078 L 173.19141 87.462891 L 160.39844 87.455078 z M 1.8085938 87.537109 L 14.601562 87.544922 L 1.8085938 87.537109 z M 160.16602 93.328125 L 172.91797 94.353516 L 160.16602 93.328125 z M 14.835938 93.412109 L 2.0839844 94.431641 L 14.835938 93.412109 z M 159.45312 99.164062 L 172.08398 101.19727 L 159.45312 99.164062 z M 15.523438 99.240234 L 2.8964844 101.28906 L 15.523438 99.240234 z M 158.3125 104.92578 L 170.73828 107.96484 L 158.3125 104.92578 z M 16.716797 104.98633 L 4.296875 108.05273 L 16.716797 104.98633 z M 156.66602 110.55859 L 168.80664 114.59375 L 156.66602 110.55859 z M 18.345703 110.62109 L 6.2148438 114.68555 L 18.345703 110.62109 z M 154.5957 116.04883 L 166.36914 121.05469 L 154.5957 116.04883 z M 20.427734 116.10938 L 8.6640625 121.14062 L 20.427734 116.10938 z M 152.0918 121.35547 L 163.41992 127.29883 L 152.0918 121.35547 z M 22.962891 121.4043 L 11.644531 127.36719 L 22.962891 121.4043 z M 149.14453 126.42969 L 159.95508 133.26953 L 149.14453 126.42969 z M 25.900391 126.49023 L 15.095703 133.33984 L 25.900391 126.49023 z M 145.8125 131.26367 L 156.03711 138.95312 L 145.8125 131.26367 z M 29.236328 131.32617 L 19.015625 139.01953 L 29.236328 131.32617 z M 142.10352 135.81641 L 151.67578 144.30273 L 142.10352 135.81641 z M 32.964844 135.86523 L 23.392578 144.35156 L 32.964844 135.86523 z M 138.02344 140.04297 L 146.88672 149.26758 L 138.02344 140.04297 z M 37.03125 140.10352 L 28.167969 149.33008 L 37.03125 140.10352 z M 133.63086 143.94336 L 141.72852 153.84766 L 133.63086 143.94336 z M 41.417969 144.00977 L 33.324219 153.91602 L 41.417969 144.00977 z M 128.94531 147.48438 L 136.22266 158.00586 L 128.94531 147.48438 z M 46.121094 147.52539 L 38.849609 158.05078 L 46.121094 147.52539 z M 123.97461 150.61719 L 130.38672 161.6875 L 123.97461 150.61719 z M 51.080078 150.66602 L 44.681641 161.74414 L 51.080078 150.66602 z M 118.78125 153.35547 L 124.2832 164.90625 L 118.78125 153.35547 z M 56.269531 153.4043 L 50.791016 164.96289 L 56.269531 153.4043 z M 113.38867 155.67773 L 117.93945 167.63281 L 113.38867 155.67773 z M 61.675781 155.68359 L 57.152344 167.65039 L 61.675781 155.68359 z M 107.81836 157.52344 L 111.38672 169.80859 L 107.81836 157.52344 z M 67.242188 157.54297 L 63.703125 169.83594 L 67.242188 157.54297 z M 102.125 158.93555 L 104.68555 171.46875 L 102.125 158.93555 z M 72.945312 158.9375 L 70.408203 171.47656 L 72.945312 158.9375 z M 78.746094 159.86328 L 77.21875 172.56445 L 78.746094 159.86328 z M 96.332031 159.88086 L 97.869141 172.58203 L 96.332031 159.88086 z M 90.480469 160.33594 L 90.986328 173.11914 L 90.480469 160.33594 z M 84.607422 160.35156 L 84.087891 173.13477 L 84.607422 160.35156 z " />
  <g
     id="g4621"
     transform="translate(-0.30084229)"
     style="fill:#005353;fill-opacity:1;stroke-width:3;stroke-miterlimit:4;stroke-dasharray:none">
    <g
       id="g1094"
       style="stroke-width:3;stroke-miterlimit:4;stroke-dasharray:none;stroke:#528383;stroke-opacity:1;stroke-linecap:round;fill:#005353;fill-opacity:1">
      <path
         style="fill:#005353;stroke:#528383;stroke-width:3;stroke-linecap:round;stroke-linejoin:miter;stroke-miterlimit:4;stroke-dasharray:none;stroke-opacity:1;fill-opacity:1"
         d="M 1.4584574,87.5 H 18.912614"
         id="path1075" />
      <path
         style="fill:#005353;stroke:#528383;stroke-width:3;stroke-linecap:round;stroke-linejoin:miter;stroke-miterlimit:4;stroke-dasharray:none;stroke-opacity:1;fill-opacity:1"
         d="M 1.4584574,87.5 H 18.912614"
         id="path1081"
         inkscape:transform-center-x="77.772068"
         inkscape:transform-center-y="0.48279771" />
      <path
         style="fill:#005353;stroke:#528383;stroke-width:3;stroke-linecap:round;stroke-linejoin:miter;stroke-miterlimit:4;stroke-dasharray:none;stroke-opacity:1;fill-opacity:1"
         d="M 87.800842,0.52425499 V 17.978412"
         id="path1083"
         inkscape:transform-center-x="0.4827977"
         inkscape:transform-center-y="-77.772068" />
      <path
         style="fill:#005353;stroke:#528383;stroke-width:3;stroke-linecap:round;stroke-linejoin:miter;stroke-miterlimit:4;stroke-dasharray:none;stroke-opacity:1;fill-opacity:1"
         d="M 174.45675,87.5 H 157.00259"
         id="path1085"
         inkscape:transform-center-x="-77.772066"
         inkscape:transform-center-y="-0.48279749" />
      <path
         style="fill:#005353;stroke:#528383;stroke-width:3;stroke-linecap:round;stroke-linejoin:miter;stroke-miterlimit:4;stroke-dasharray:none;stroke-opacity:1;fill-opacity:1"
         d="M 87.800842,173.52255 V 156.06839"
         id="path1087"
         inkscape:transform-center-x="-0.482797"
         inkscape:transform-center-y="77.772069" />
    </g>
  </g>
  <metadata
     id="metadata92">
    <rdf:RDF>
      <cc:Work
         rdf:about="">
        <dc:format>image/svg+xml</dc:format>
        <dc:type
           rdf:resource="http://purl.org/dc/dcmitype/StillImage" />
      </cc:Work>
    </rdf:RDF>
  </metadata>
  <sodipodi:namedview
     pagecolor="#ffffff"
     bordercolor="#666666"
     borderopacity="1"
     objecttolerance="10"
     gridtolerance="10"
     guidetolerance="10"
     inkscape:pageopacity="0"
     inkscape:pageshadow="2"
     inkscape:window-width="1871"
     inkscape:window-height="1141"
     id="namedview90"
     showgrid="false"
     showguides="true"
     inkscape:guide-bbox="true"
     inkscape:snap-global="false"
     inkscape:zoom="3.8143361"
     inkscape:cx="94.155011"
     inkscape:cy="58.301048"
     inkscape:window-x="0"
     inkscape:window-y="0"
     inkscape:window-maximized="1"
     inkscape:current-layer="svg88"
     inkscape:document-rotation="0" />
  <!-- Generator: Sketch 51.3 (57544) - http://www.bohemiancoding.com/sketch -->
  <title
     id="title2">Wind Dial</title>
  <desc
     id="desc4">Created with Sketch.</desc>
  <defs
     id="defs6" />
</svg>
